<?xml version="1.0" encoding="UTF-8" standalone="no"?>
<svg xmlns="http://www.w3.org/2000/svg" class="card" face="1B" height="3.5in" preserveAspectRatio="none" viewBox="-120 -168 240 336" width="2.5in"><rect width="239" height="335" x="-119.5" y="-167.5" rx="12" ry="12" fill="#7face6" stroke="black"></rect><rect width="216.095" height="313.967" x="-108.047" y="-156.983" fill="black"></rect><path d="M0,0v1v1h1h1h1h1v1h-1h-1v1v1h1v1h1v-1v-1h1v1h1v-1v-1v-1v-1h-1v1v1M5,1h-1v-1h1v-1v-1h-1h-1v1h-1v-1h-1v1v1v1h1v-1h1v1M1,-2v-1h1v-1h-1h-1h-1v1h1M-1,-4v-1v-1v-1v-1v-1h1v-1h1h1h1v-1h1v1v1h1h1v1v1h-1v-1h-1h-1v-1h-1v1h-1v-1M1,-8h-1v1h1v1h-1v1h1h1h1v1v1h1v-1h1h1v1h1h1v-1h-1v-1v-1v-1h1v-1h-1v-1h1v-1h-1h-1v-1h1v-1h-1h-1v-1v-1h-1h-1h-1h-1v-1h1v-1h-1h-1h-1v-1h-1h-1v1h1v1h-1h-1h-1h-1h-1h-1v1h1h1v1h1h1h1v-1h-1h-1M-3,-14h1v1v1h1h1v1h-1h-1v1h1M-2,-10v1v1v1h-1h-1h-1v-1h-1h-1v-1h-1v-1v-1v-1v-1h1v1h1v1h1v1h1h1v-1h-1v-1h1M-4,-12h-1M-3,-10v1h-1h-1h-1v-1h-1v-1M-4,-9v1h1M-8,-13h-1v1h-1v1h1v1h-1h-1v1h-1h-1h-1v-1h-1h-1v1h1v1h-1h-1v-1v-1v-1v-1v-1h1v-1h1v1v1h1v-1h1v-1h1v-1v-1h-1v1h-1v1M-14,-15v-1h-1h-1h-1v1v1M-17,-15h1h1M-17,-16v-1v-1h1v-1h-1v-1h1h1v1v1h1h1v1h-1h-1h-1M-13,-17h1h1v1v1v1h1v1h-1v1v1h-1v1h-1v-1h-1h-1h-1v-1M-13,-11v-1h1v-1M-10,-14v-1v-1h1v1v1M-9,-16v-1h1v-1h-1h-1v1M-10,-18v-1h-1v1h-1v-1v-1h-1v-1v-1h1h1h1h1v-1h1v-1h1v-1h1h1h1v1v1h1h1h1h1v1v1h1v-1v-1h1v1v1v1h1v1h-1h-1v-1h-1h-1v1h1v1v1h1v-1h1v1h1v-1h1v1h1v-1v-1h-1v-1v-1v-1v-1h-1v-1v-1h-1h-1h-1h-1h-1v1h-1v-1M-2,-24h1h1h1h1M3,-25h1h1h1h1v1v1h-1h-1v-1h1M5,-24h-1M5,-23v1v1h1v1h1h1h1v-1h-1v-1h1v-1v-1v-1h1v1v1h1v1h-1v1v1h1h1h1v1h1h1v1v1h1v1h1v-1v-1h-1v-1v-1h1v1M17,-20v-1h-1v-1v-1h-1h-1v-1h-1h-1v1h1v1h-1v1h-1M12,-21h1h1v-1h1v1v1h-1M12,-24h-1v-1h1h1h1h1v1h1v-1h1v1v1v1M17,-16v1h-1v1h1v1v1v1v1v1h-1h-1h-1h-1v-1h1h1h1v-1h-1v-1h-1v-1v-1v-1h-1h-1h-1v1v1v1h1h1v1h1M13,-11h-1v1h-1v-1h-1v1h-1v-1v-1h-1v-1v-1h1h1v1v1M10,-13h-1M10,-14v-1v-1h1v-1h1h1v1h1h1v1v1v1h1v1M14,-16v-1v-1h-1h-1h-1h-1v1h-1v-1v-1h1h1h1M9,-19h-1v1v1h-1v-1v-1h-1v1v1v1v1v1h1v1h-1M7,-14v-1h1v-1h1v1M8,-16h-1M6,-15h-1v-1h-1v1h-1v-1M13,-16h-1M8,-12v1M9,-10v1h1v1v1h1h1h1h1h1v-1h1h1v1v1v1v1v1h-1h-1h-1v1h1v1h1v1h-1h-1v-1h-1v-1v-1v-1v-1h1h1h1v1h-1h-1M16,-5v-1v-1M16,-6h-1h-1h-1h-1v1h-1h-1v-1h1M10,-6h-1v-1v-1M9,-6h-1v1h1v1h1v1h-1v1h-1h-1v1h1h1v1h-1v1h-1v-1h-1v-1v-1M7,1v1v1v1h1h1v1v1h-1v-1h-1v1h-1h-1M6,6v1h1h1v1h1v1h1v-1h1v-1v-1h-1v1h-1M10,6v-1v-1h1h1h1v1v1v1v1h-1v-1v-1v-1h-1M13,8h1v-1h1h1h1v-1v-1h-1v1h-1h-1v-1v-1h1v-1v-1v-1h1v1v1h1v1h-1M17,3v-1v-1v-1v-1v-1h-1M15,1h-1h-1h-1h-1h-1h-1v1v1h1h1v-1h1v1h1h1v-1h-1M11,2h-1M9,3h-1v-1M10,1v-1v-1v-1h1v-1v-1h1v1v1v1h-1v1h1h1M15,4v1M15,-8h-1h-1h-1v-1h-1v1M13,-12v-1v-1h-1v1M9,-25h-1v1v1M8,-22h-1v1M7,-22h-1M6,-20h-1M3,-23v1v1M0,-18h-1h-1h-1v-1h1v-1h-1v-1h1v-1h1v1M-2,-22h-1h-1h-1v1h1v1h-1v1h1v1h-1h-1h-1v1h1h1h1v1h-1h-1h-1h-1M-7,-18v-1h1v-1v-1h-1h-1v1h1M-8,-20v1h-1v-1h-1h-1v-1h-1M-11,-21h1h1M-8,-21v-1h1h1v-1h1v-1h-1M-6,-23h-1M-7,-25h-1h-1h-1h-1h-1v1h-1v1h-1v1h-1v-1h-1h-1v1v1h1h1h1v1v1h1M-16,-21v-1M-17,-23v-1h1h1h1v-1h1M-14,-25h-1h-1h-1M-13,-23h1h1v-1h1h1M-10,-24v1M-2,-7v1M0,-11h1h1v-1h1h1v-1h-1h-1h-1h-1h-1v-1v-1h1v1M1,-13v1M5,-12v1v1M7,-6h-1h-1h-1h-1v-1h1M3,-7h-1v1M4,-6v1h1h1M6,-3h-1M3,-1h1M4,4h-1" transform="scale(6.117)" fill="none" stroke="#7face6" stroke-width="0.674" stroke-linecap="square" stroke-linejoin="miter"></path><path d="M0,0v1v1h1h1h1h1v1h-1h-1v1v1h1v1h1v-1v-1h1v1h1v-1v-1v-1v-1h-1v1v1M5,1h-1v-1h1v-1v-1h-1h-1v1h-1v-1h-1v1v1v1h1v-1h1v1M1,-2v-1h1v-1h-1h-1h-1v1h1M-1,-4v-1v-1v-1v-1v-1h1v-1h1h1h1v-1h1v1v1h1h1v1v1h-1v-1h-1h-1v-1h-1v1h-1v-1M1,-8h-1v1h1v1h-1v1h1h1h1v1v1h1v-1h1h1v1h1h1v-1h-1v-1v-1v-1h1v-1h-1v-1h1v-1h-1h-1v-1h1v-1h-1h-1v-1v-1h-1h-1h-1h-1v-1h1v-1h-1h-1h-1v-1h-1h-1v1h1v1h-1h-1h-1h-1h-1h-1v1h1h1v1h1h1h1v-1h-1h-1M-3,-14h1v1v1h1h1v1h-1h-1v1h1M-2,-10v1v1v1h-1h-1h-1v-1h-1h-1v-1h-1v-1v-1v-1v-1h1v1h1v1h1v1h1h1v-1h-1v-1h1M-4,-12h-1M-3,-10v1h-1h-1h-1v-1h-1v-1M-4,-9v1h1M-8,-13h-1v1h-1v1h1v1h-1h-1v1h-1h-1h-1v-1h-1h-1v1h1v1h-1h-1v-1v-1v-1v-1v-1h1v-1h1v1v1h1v-1h1v-1h1v-1v-1h-1v1h-1v1M-14,-15v-1h-1h-1h-1v1v1M-17,-15h1h1M-17,-16v-1v-1h1v-1h-1v-1h1h1v1v1h1h1v1h-1h-1h-1M-13,-17h1h1v1v1v1h1v1h-1v1v1h-1v1h-1v-1h-1h-1h-1v-1M-13,-11v-1h1v-1M-10,-14v-1v-1h1v1v1M-9,-16v-1h1v-1h-1h-1v1M-10,-18v-1h-1v1h-1v-1v-1h-1v-1v-1h1h1h1h1v-1h1v-1h1v-1h1h1h1v1v1h1h1h1h1v1v1h1v-1v-1h1v1v1v1h1v1h-1h-1v-1h-1h-1v1h1v1v1h1v-1h1v1h1v-1h1v1h1v-1v-1h-1v-1v-1v-1v-1h-1v-1v-1h-1h-1h-1h-1h-1v1h-1v-1M-2,-24h1h1h1h1M3,-25h1h1h1h1v1v1h-1h-1v-1h1M5,-24h-1M5,-23v1v1h1v1h1h1h1v-1h-1v-1h1v-1v-1v-1h1v1v1h1v1h-1v1v1h1h1h1v1h1h1v1v1h1v1h1v-1v-1h-1v-1v-1h1v1M17,-20v-1h-1v-1v-1h-1h-1v-1h-1h-1v1h1v1h-1v1h-1M12,-21h1h1v-1h1v1v1h-1M12,-24h-1v-1h1h1h1h1v1h1v-1h1v1v1v1M17,-16v1h-1v1h1v1v1v1v1v1h-1h-1h-1h-1v-1h1h1h1v-1h-1v-1h-1v-1v-1v-1h-1h-1h-1v1v1v1h1h1v1h1M13,-11h-1v1h-1v-1h-1v1h-1v-1v-1h-1v-1v-1h1h1v1v1M10,-13h-1M10,-14v-1v-1h1v-1h1h1v1h1h1v1v1v1h1v1M14,-16v-1v-1h-1h-1h-1h-1v1h-1v-1v-1h1h1h1M9,-19h-1v1v1h-1v-1v-1h-1v1v1v1v1v1h1v1h-1M7,-14v-1h1v-1h1v1M8,-16h-1M6,-15h-1v-1h-1v1h-1v-1M13,-16h-1M8,-12v1M9,-10v1h1v1v1h1h1h1h1h1v-1h1h1v1v1v1v1v1h-1h-1h-1v1h1v1h1v1h-1h-1v-1h-1v-1v-1v-1v-1h1h1h1v1h-1h-1M16,-5v-1v-1M16,-6h-1h-1h-1h-1v1h-1h-1v-1h1M10,-6h-1v-1v-1M9,-6h-1v1h1v1h1v1h-1v1h-1h-1v1h1h1v1h-1v1h-1v-1h-1v-1v-1M7,1v1v1v1h1h1v1v1h-1v-1h-1v1h-1h-1M6,6v1h1h1v1h1v1h1v-1h1v-1v-1h-1v1h-1M10,6v-1v-1h1h1h1v1v1v1v1h-1v-1v-1v-1h-1M13,8h1v-1h1h1h1v-1v-1h-1v1h-1h-1v-1v-1h1v-1v-1v-1h1v1v1h1v1h-1M17,3v-1v-1v-1v-1v-1h-1M15,1h-1h-1h-1h-1h-1h-1v1v1h1h1v-1h1v1h1h1v-1h-1M11,2h-1M9,3h-1v-1M10,1v-1v-1v-1h1v-1v-1h1v1v1v1h-1v1h1h1M15,4v1M15,-8h-1h-1h-1v-1h-1v1M13,-12v-1v-1h-1v1M9,-25h-1v1v1M8,-22h-1v1M7,-22h-1M6,-20h-1M3,-23v1v1M0,-18h-1h-1h-1v-1h1v-1h-1v-1h1v-1h1v1M-2,-22h-1h-1h-1v1h1v1h-1v1h1v1h-1h-1h-1v1h1h1h1v1h-1h-1h-1h-1M-7,-18v-1h1v-1v-1h-1h-1v1h1M-8,-20v1h-1v-1h-1h-1v-1h-1M-11,-21h1h1M-8,-21v-1h1h1v-1h1v-1h-1M-6,-23h-1M-7,-25h-1h-1h-1h-1h-1v1h-1v1h-1v1h-1v-1h-1h-1v1v1h1h1h1v1v1h1M-16,-21v-1M-17,-23v-1h1h1h1v-1h1M-14,-25h-1h-1h-1M-13,-23h1h1v-1h1h1M-10,-24v1M-2,-7v1M0,-11h1h1v-1h1h1v-1h-1h-1h-1h-1h-1v-1v-1h1v1M1,-13v1M5,-12v1v1M7,-6h-1h-1h-1h-1v-1h1M3,-7h-1v1M4,-6v1h1h1M6,-3h-1M3,-1h1M4,4h-1" transform="scale(6.117)rotate(180)" fill="none" stroke="#7face6" stroke-width="0.674" stroke-linecap="square" stroke-linejoin="miter"></path></svg>